<svg id="svg2" xmlns:rdf="http://www.w3.org/1999/02/22-rdf-syntax-ns#" xmlns="http://www.w3.org/2000/svg" height="512"
     viewBox="0 0 512.00001 512.00001" width="512" version="1.1" xmlns:cc="http://creativecommons.org/ns#"
     xmlns:dc="http://purl.org/dc/elements/1.1/">
    <metadata id="metadata7">
        <rdf:RDF>
            <cc:Work rdf:about="">
                <dc:format>image/svg+xml</dc:format>
                <dc:type rdf:resource="http://purl.org/dc/dcmitype/StillImage"/>
                <dc:title/>
            </cc:Work>
        </rdf:RDF>
    </metadata>
    <g opacity="0.1">
        <g id="g4204" transform="matrix(.60279 0 0 .60279 225.63 4.339)">
            <g id="g4156">
                <g id="g4158" fill="#000000">
                    <polygon id="polygon4160" points="194.72 436.54 194.72 250.68 0 250.68 0 409.7"/>
                    <polygon id="polygon4162" points="194.72 226.69 194.72 38.544 0 65.38 0 226.69"/>
                    <polygon id="polygon4164"
                             points="216.13 439.4 475.08 475.08 475.08 250.68 475.08 250.67 216.13 250.67"/>
                    <polygon id="polygon4166" points="216.13 226.69 475.08 226.69 475.08 0 216.13 35.688"/>
                </g>
            </g>
        </g>
        <g id="g4268" transform="matrix(-8.8458 0 0 10.048 287.18 162.54)">
            <g id="g4228">
                <path id="path4230" fill="#000000"
                      d="m8.799 23.323c-.088-.459-.265-.965-.27-1.474-.017-1.692.674-3.168 1.535-4.574.018-.029.063-.039.095-.06-.044.219-.144.394-.235.567-.635 1.222-1.207 2.466-1.235 3.877-.016.772.135 1.503.786 2.117-.008-.164-.023-.276-.02-.393.018-.547-.004-1.1.068-1.639.184-1.359.676-2.609 1.325-3.822.421-.786.937-1.355 1.8-1.594.129-.035.242-.127.42-.223-.248-.156-.433-.264-.609-.385-.412-.279-.52-.68-.3-1.133.109-.226.203-.474.366-.654.604-.668.916-1.428.846-2.334-.002-.023.004-.045.008-.068.044-.236-.014-.422-.184-.617-.666-.762-.611-1.561.148-2.215.188-.16.18-.275.096-.488-.322-.809-.397-1.645-.096-2.475.252-.691.975-.904 1.511-.445.359.31.622.701.688 1.191.031.234.043.471.062.705h1.358c0-.117.012-.23-.002-.342-.063-.496.121-.92.379-1.32.523-.818 1.733-.99 2.335-.299.565.65.883 1.414.726 2.301-.057.32-.172.629-.264.957.352.217.605.533.562.971-.038.381-.17.75-.248 1.127-.03.154-.084.336-.032.474.153.426.352.838.537 1.254.209.467.437.928.637 1.397.517 1.215 1.024 2.435 1.532 3.654.197.483.422.965.562 1.467.429 1.545.52 3.125.382 4.719-.016.188.016.277.207.354.384.153.582.463.58.886 0 .172-.04.348-.012.512.025.162.078.358.188.461.434.39 1.121.397 1.623.093.6-.365.963-.925 1.363-1.562-1.074-.857-2.209-.992-3.461-.396.137-.143.278-.328.44-.352.483-.061.608-.398.721-.778.065-.229.143-.457.204-.688.452-1.723.145-3.287-1.03-4.641-.304-.353-.692-.632-1.042-.944.819.412 1.486 1.006 1.952 1.791.997 1.682.626 3.393.054 5.1 1.344.094 1.806.256 2.334.822.188-.021.371-.029.547-.068.081-.018.189-.084.214-.152.108-.312.218-.627.276-.949.182-.961-.043-1.889-.312-2.799-.569-1.922-1.515-3.662-2.676-5.291-.728-1.022-1.479-2.037-2.094-3.129-.878-1.562-1.337-3.26-1.303-5.078.013-.653-.024-1.323-.146-1.967-.212-1.134-.593-2.229-1.431-3.058-1.582-1.563-3.486-2.057-5.639-1.485-1.069.282-2.032.771-2.639 1.764-.491.804-.683 1.705-.675 2.623.015 1.688.015 3.388.19 5.063.156 1.481-.102 2.75-1.113 3.865-.404.444-.755.944-1.11 1.436-1.484 2.043-2.442 4.35-3.317 6.696-.221.595-.311 1.201-.107 1.845.666-.450 1.339-.593 1.945-.198zm12.876-13.007c.33.166.646.361.942.58.112.084.151.266.188.332 0 .426-.289.619-.58.457-.445-.248-.68-.656-.776-1.145-.033-.173.069-.302.226-.224zm-2.465-5.86c.527-.068 1.085.389 1.244 1.033-.316-.462-.655-.894-1.244-1.033zm.219-2.765c.353.006.475.275.58.543.104.271-.15.312-.291.424-.035.025-.08.041-.123.059-.472.201-.594.121-.59-.393.004-.484.102-.636.424-.633zm-3.796 3.781c-.349-.283-.699-.566-1.02-.826.375-.035.853.328 1.02.826zm-1.558 26.986c.113.551-.159.973-.647 1.301-.16.107-.307.24-.44.381-.583.609-1.295.732-2.077.541-.409-.1-.815-.225-1.205-.383-1.479-.594-3.011-.979-4.568-1.295-.534-.105-1.066-.252-1.58-.434-.730-.259-.963-.683-.811-1.435.219-1.086.229-2.172.055-3.267-.137-.856.076-1.161.916-1.381.32-.084.639-.181.963-.237.598-.107 1.044-.423 1.396-.906.308-.424.605-.864.969-1.237.644-.662 1.218-.689 1.822-.009.67.759 1.28 1.576 1.846 2.416.949 1.408 1.753 2.914 2.85 4.228.393.47.575 1.034.511 1.717zm17.569-2.181c-.316.256-.672.471-1.027.674-1.519.869-2.995 1.797-4.266 3.016-.619.596-1.366.791-2.194.781-.237-.016-.479-.014-.718-.045-.874-.113-1.387-.615-1.576-1.473-.154-.709-.104-1.414.047-2.105.416-1.889.436-3.807.457-5.723.013-.869.22-1.131 1.188-1.097.675.022.762.117.689.769-.086.811.514 1.418 1.432 1.506 1.018.1 1.666-.479 2.264-1.17.125-.146.213-.322.324-.482.267-.387.795-.365.979.07.109.262.167.58.135.861-.08.647.183 1.146.62 1.555.489.457 1.005.896 1.55 1.285.625.447.702 1.087.096 1.578zm-16.028-17.912c.874.154 1.669-.043 2.403-.549.393-.271.801-.543 1.242-.713.667-.258 1.012-.693 1.062-1.4.044-.582-.064-.799-.621-1.021-.274-.111-.558-.205-.894-.326.460-.158.730-.410.771-.851.037-.420-.089-.795-.367-1.104-.258-.281-.607-.264-.928-.154-.360.123-.461.461-.489.799-.025.297-.005.597-.005.896-0.9-.568-1.842-.514-2.8-.146-.038-.342-.040-.688-.126-1.012-.102-.391-.472-.623-.791-.570-.308.050-.511.357-.526.786-.021.58.248 1.027.662 1.424-.214.183-.416.349-.611.521-.646.565-.697 1.172-.092 1.797.484.498 1.014.955 1.545 1.404.15.124.371.187.565.219zm3.204-5.907c.108.074.239.131.316.23.051.064.022.189.033.289-.036.007-.072.015-.108.023-.106-.146-.215-.293-.322-.439.028-.036.055-.071.081-.103zm-2.263 1.459c.174.025.355.029.518.088.063.023.082.168.121.26-.033.025-.066.052-0.1.078-.193-.096-.386-.188-.578-.284.012-.050.026-.096.039-.142zm-1.334.11c.088-.047.209-.035.314-.051.014.033.025.064.038.096-.082.066-.155.156-.249.191-.083.031-.189.002-.285-.002.059-.080.103-.189.182-.234zm-1.027-1.444c.018-.024.035-.049.053-.072.089.035.229.05.257.109.063.146.072.316.104.477-.041 0-.08 0-.12-.002-.098-.171-.195-.343-.294-.512zm-.964 3.512c.034-.031.068-.063.102-.094.105.073.221.139.316.227 1.055.961 2.236.99 3.463.426.743-.344 1.444-.777 2.171-1.158.151-.08.33-.104.497-.156.017.037.029.072.045.109-.056.064-.1.148-.17.191-1.017.627-2.002 1.33-3.193 1.6-1.101.248-2.109.061-2.943-.758-.116-.108-.194-.258-.288-.387zm8.372 18.993c-.175 1.383-.34 2.691-.511 4.047-2.082-.523-4.245-.057-6.375-.062-.047-.592-.095-1.194-.143-1.801 2.609.32 4.996-.268 7.029-2.184zm-9.074-2.518c.342.282.681.573 1.002.879.302.289.384.666.335 1.069-.041.343-.36.648-.698.634-.101-.004-.221-.134-.286-.234-.752-1.17-1.493-2.348-2.244-3.518-.172-.269-.369-.521-.556-.779.009-.014.017-.027.025-.041.809.663 1.619 1.322 2.422 1.99z"/>
            </g>
        </g>
        <g id="g4403" transform="matrix(8.8047 0 0 8.8047 284.73 298.71)">
            <g id="g4357">
                <g id="g4359" fill="#000000">
                    <path id="path4361"
                          d="m20.906 9.31c-.667.667-2.519-.103-4.137-1.721-1.617-1.617-2.388-3.469-1.721-4.137.131-.131.317-.190.527-.216-1.343-.585-2.822-.915-4.38-.915-6.062.002-10.976 4.916-10.976 10.978 0 6.061 4.914 10.976 10.976 10.976s10.976-4.915 10.976-10.976c0-1.656-.377-3.221-1.033-4.628-.009.263-.077.486-.232.639z"/>
                    <path id="path4363"
                          d="m19.902 8.78s5.262-7.246 3.941-8.566c-1.32-1.321-8.381 3.905-8.381 3.905s.419 3.272 4.44 4.661z"/>
                    <path id="path4365"
                          d="m6.927 2.552s-2.892-2.545-3.953-1.824c-1.061.72.237 4.217.237 4.217s1.142-2.537 3.716-2.393z"/>
                </g>
            </g>
        </g>
    </g>
</svg>