<?xml version="1.0" encoding="utf-8"?>
<!-- Generator: Adobe Illustrator 17.1.0, SVG Export Plug-In . SVG Version: 6.00 Build 0)  -->
<!DOCTYPE svg PUBLIC "-//W3C//DTD SVG 1.1//EN" "http://www.w3.org/Graphics/SVG/1.1/DTD/svg11.dtd">
<svg version="1.1" id="Layer_1" xmlns="http://www.w3.org/2000/svg" xmlns:xlink="http://www.w3.org/1999/xlink" x="0px" y="0px"
	 width="300px" height="227px" viewBox="0 0 300 227" enable-background="new 0 0 300 227" xml:space="preserve">
<g>
	<path opacity="0.2" fill="#FFFFFF" d="M195.4,166.7l-23,23v-85.4c0-5.4-4.4-9.7-9.7-9.7c-5.4,0-9.7,4.4-9.7,9.7v85.4l-23-23
		c-3.8-3.8-10-3.8-13.8,0s-3.8,10,0,13.8l39.6,39.6c1.9,1.9,4.4,2.8,6.9,2.8s5-0.9,6.9-2.8l39.6-39.6c3.8-3.8,3.8-10,0-13.8
		S199.2,162.9,195.4,166.7z"/>
	<path opacity="0.2" fill="#FFFFFF" d="M218.3,59.3c-4.7,0-9.5,0.5-14.6,1.6C185.4,25.7,149,3.5,109,3.5C50,3.5,2.1,51.4,2.1,110.3
		c0,56,44.9,106.9,94.3,106.9c5.4,0,9.7-4.4,9.7-9.7s-4.4-9.7-9.7-9.7c-35.3,0-74.9-37.4-74.9-87.5c0-48.2,39.2-87.4,87.5-87.4
		c35.1,0,66.7,20.9,80.5,53.2l3.4,8.1l8.4-2.5c6.3-1.9,11.8-2.8,17.1-2.8c32.8,0,59.5,26.7,59.5,59.5c0,30.9-19.6,55.2-47.8,59
		c-5.3,0.7-9.1,5.6-8.4,10.9c0.7,5.3,5.5,8.7,10.9,8.4c38.1-5.1,64.7-37.3,64.7-78.3C297.3,94.7,261.8,59.3,218.3,59.3z"/>
</g>
</svg>