<svg version="1.1" xmlns="http://www.w3.org/2000/svg" viewBox="0 0 100 100" preserveaspectration="true" class="icon" width="500" height="500">
    <g fill="#e67e22">
        <rect x="0" y="0" width="30" height="30"></rect>
        <rect x="64" y="0" width="30" height="30"></rect>
        <rect x="0" y="32" width="62" height="30"></rect>
        <rect x="32" y="32" width="30" height="30"></rect>
        <rect x="64" y="32" width="30" height="30"></rect>
        <rect x="0" y="64" width="30" height="30"></rect>
        <rect x="64" y="64" width="30" height="30"></rect>
    </g>

    <g  class="icons" fill="#b86114">
       <!--<polyline points="M0,42 L10,35 L20,60 L30,50 L40,39 L50,42 L62,55 Z" style=" fill:none; stroke-width:1; stroke: #b86114"></polyline>-->
        <path d="M0 62 L0 42 L10 35 L20 50 L30 37 L40 39 L50 42 L62 55 L62,62 Z" style="stroke-width:0; stroke: #b86114"></path>

        <g class="bars">
            <rect x="0" y="15" width="4" height="15"></rect>
            <rect x="5" y="2" width="4" height="28"></rect>
            <rect x="10" y="25" width="4" height="5"></rect>
            <rect x="15" y="20" width="4" height="10"></rect>
            <rect x="20" y="10" width="4" height="20"></rect>
            <rect x="25" y="27" width="4" height="3"></rect>
        </g>

        <g class="progress">
            <!--<rect x="2" y="70" width="26" height="5" style="fill:#733c0d"></rect>-->
            <rect x="2" y="70" width="19" height="5"></rect>

            <!--<rect x="2" y="77" width="26" height="5" style="fill:#733c0d"></rect>-->
            <rect x="2" y="77" width="10" height="5"></rect>

            <!--<rect x="2" y="84" width="26" height="5" style="fill:#733c0d"></rect>-->
            <rect x="2" y="84" width="15" height="5"></rect>
        </g>

        <text x="72" y="20">%</text>


        <polygon points="69,33 79,33 89,47 79,61 69,61 79,47" ></polygon>

        <line x1="77" y1="77" x2="87" y2="87" style="stroke-width:2; stroke:#b86114"></line>
        <circle cx="77" cy="77" r="5" style="fill:#e67e22; stroke-width:1; stroke:#b86114" ></circle>
    </g>
</svg>
