<?xml version="1.0" standalone="no"?>
<!DOCTYPE svg PUBLIC "-//W3C//DTD SVG 20010904//EN"
 "http://www.w3.org/TR/2001/REC-SVG-20010904/DTD/svg10.dtd">
<svg version="1.0" xmlns="http://www.w3.org/2000/svg"
 width="2000.000000pt" height="1829.000000pt" viewBox="0 0 2000.000000 1829.000000"
 preserveAspectRatio="xMidYMid meet">
<metadata>
Created by potrace 1.11, written by Peter Selinger 2001-2013
</metadata>
<g transform="translate(0.000000,1829.000000) scale(0.100000,-0.100000)"
fill="#000000" stroke="none" opacity="0.2">
<path d="M8790 16820 c-217 -6 -251 -9 -295 -28 -27 -11 -86 -28 -130 -37
-250 -50 -371 -88 -638 -196 -199 -81 -415 -216 -571 -357 -39 -36 -110 -101
-159 -145 -48 -44 -106 -93 -128 -109 -22 -15 -52 -47 -67 -69 -15 -22 -50
-68 -77 -102 -28 -34 -72 -95 -98 -135 -52 -79 -61 -85 -157 -102 -69 -12
-191 -65 -293 -127 -168 -101 -294 -258 -391 -488 -75 -178 -146 -299 -198
-338 -52 -39 -131 -57 -372 -83 -27 -3 -59 -12 -70 -19 -12 -7 -73 -30 -136
-51 -107 -35 -123 -44 -240 -132 -69 -52 -161 -129 -206 -171 -95 -89 -162
-145 -186 -154 -23 -8 -34 8 -62 89 -79 227 -173 432 -242 525 -79 108 -211
210 -319 245 -27 9 -69 27 -91 41 -23 13 -86 35 -140 49 -91 23 -111 24 -254
19 -221 -7 -327 -23 -454 -65 -161 -53 -242 -118 -474 -378 -61 -68 -161 -232
-207 -337 -162 -371 -200 -772 -104 -1115 47 -168 62 -210 119 -327 36 -73 90
-161 135 -222 86 -114 225 -249 303 -293 29 -17 69 -50 90 -75 84 -102 107
-125 134 -139 40 -21 164 -34 218 -24 56 11 168 -19 220 -59 19 -15 48 -31 63
-35 16 -4 49 -20 75 -37 26 -17 71 -45 101 -62 101 -59 161 -184 161 -337 0
-30 5 -112 11 -181 11 -120 11 -128 -8 -155 -11 -16 -27 -50 -37 -77 -10 -26
-33 -69 -52 -95 -51 -72 -150 -260 -169 -322 -12 -38 -18 -107 -22 -225 -5
-155 -3 -182 21 -310 41 -217 46 -237 66 -285 10 -25 30 -83 44 -130 28 -92
27 -109 -12 -186 -11 -22 -27 -64 -35 -94 -9 -30 -27 -83 -41 -116 -16 -37
-30 -98 -36 -150 -5 -49 -16 -116 -24 -149 -9 -33 -15 -83 -16 -111 0 -28 -6
-73 -14 -100 -20 -70 -29 -354 -16 -514 6 -74 15 -191 20 -260 6 -73 21 -165
36 -220 14 -52 32 -130 39 -173 14 -77 14 -81 -9 -135 -13 -32 -33 -86 -44
-122 -11 -36 -38 -99 -60 -140 -59 -112 -98 -265 -129 -500 -14 -110 -18 -211
-18 -547 l0 -412 -30 -31 c-83 -87 -210 -147 -465 -220 -142 -40 -275 -97
-307 -132 -9 -10 -21 -18 -27 -18 -6 0 -40 -18 -76 -40 -36 -22 -72 -40 -80
-40 -41 -1 -133 -49 -281 -147 -53 -35 -224 -209 -263 -267 -37 -55 -126 -236
-126 -255 0 -6 -11 -44 -25 -83 -59 -168 -113 -576 -100 -753 14 -196 54 -332
152 -523 88 -171 146 -254 250 -356 110 -110 216 -190 346 -263 112 -63 379
-188 424 -199 62 -15 141 -63 150 -91 10 -28 2 -141 -11 -162 -11 -18 13 -276
35 -380 49 -232 93 -332 209 -481 104 -134 316 -296 545 -416 86 -45 211 -86
352 -115 100 -20 124 -21 372 -15 351 8 501 20 821 66 36 5 144 14 240 20 96
6 236 17 310 25 74 7 187 19 250 25 113 10 277 38 395 66 33 7 135 25 225 39
203 32 242 39 305 60 78 25 198 57 410 109 55 13 129 32 165 41 36 9 103 26
150 37 117 29 156 48 236 109 73 56 304 303 426 455 93 117 240 300 299 372
25 32 111 127 191 212 156 166 270 305 385 472 75 109 153 258 153 295 0 12 5
34 10 48 13 34 15 234 6 435 -12 242 -13 232 5 243 13 8 29 -2 82 -56 37 -36
77 -88 91 -114 13 -26 34 -57 46 -68 12 -11 36 -40 53 -65 17 -25 49 -67 72
-95 54 -64 166 -228 194 -282 11 -23 34 -61 49 -85 16 -24 32 -56 36 -72 4
-16 38 -61 75 -100 38 -39 78 -89 89 -112 22 -43 84 -104 106 -104 8 0 20 -7
27 -16 21 -26 96 -54 142 -54 71 0 86 8 92 49 3 20 12 59 20 87 8 28 17 93 19
145 2 52 9 107 15 122 15 40 14 133 -4 191 -8 27 -17 99 -21 160 -3 61 -12
138 -19 171 -8 33 -24 181 -36 328 -17 213 -19 277 -10 315 7 26 12 65 12 87
1 173 8 319 18 365 6 30 15 87 20 126 4 39 11 75 14 81 13 21 47 165 47 200 0
95 -64 257 -117 296 -50 38 -335 65 -513 48 -181 -17 -289 -31 -335 -44 -22
-6 -47 -10 -55 -8 -9 1 -44 -8 -79 -19 -59 -19 -101 -25 -101 -16 0 2 7 17 15
32 8 16 15 39 15 51 0 12 24 51 54 88 30 36 57 79 61 94 3 16 18 39 32 52 29
27 73 93 73 110 0 6 22 35 48 64 58 63 68 94 82 260 17 190 19 212 25 365 4
101 12 165 26 212 11 36 25 111 30 165 5 54 11 114 13 133 2 19 9 89 15 154 6
65 16 137 22 160 7 23 13 75 15 116 1 41 7 107 13 145 5 39 19 167 30 285 12
118 25 235 30 260 20 92 29 245 36 570 2 102 8 200 14 219 6 19 27 51 46 71
29 30 37 48 46 99 5 34 23 97 40 139 31 77 31 77 25 212 -5 88 -12 145 -22
165 -9 17 -19 68 -24 115 -9 80 -11 86 -45 115 -27 22 -39 44 -50 85 -10 38
-23 61 -42 75 -91 66 -186 188 -205 263 -8 32 -30 66 -80 121 -37 42 -78 96
-90 121 -12 25 -37 63 -57 86 -58 66 -136 183 -173 259 -19 39 -44 86 -56 105
-12 19 -22 46 -22 58 0 13 -6 36 -14 50 -17 34 -41 95 -57 147 -6 22 -20 57
-30 77 -20 39 -32 99 -49 248 -6 47 -19 117 -29 155 -48 175 -72 255 -96 320
-27 69 -35 114 -75 390 -11 77 -31 185 -45 240 -13 55 -29 123 -34 150 -11 54
-26 105 -73 235 -54 148 -88 253 -103 316 -8 36 -35 96 -64 145 -85 142 -126
237 -187 423 -44 137 -71 201 -111 268 -30 49 -60 115 -69 147 -8 32 -26 87
-39 121 -14 35 -27 84 -30 109 -6 44 -4 49 50 116 32 39 64 83 72 100 9 16 49
62 89 102 41 40 74 77 74 83 0 5 14 30 31 55 17 26 40 63 50 83 l18 37 1 -66
c0 -149 -28 -236 -135 -417 -62 -106 -78 -161 -78 -267 0 -73 6 -109 32 -189
17 -55 40 -114 51 -130 11 -17 30 -52 44 -77 40 -74 111 -97 196 -63 l41 17
37 -35 c66 -64 105 -70 182 -31 32 16 34 15 90 -16 72 -39 103 -39 160 -1 52
35 57 35 81 14 27 -25 125 -31 164 -9 71 38 125 142 150 290 17 97 17 145 0
415 -3 55 -27 140 -67 243 l-31 77 33 73 c154 340 206 512 215 720 8 162 -6
308 -46 481 -16 72 -35 154 -41 182 -5 29 -21 69 -34 90 -13 22 -48 86 -78
144 -62 121 -143 235 -188 267 -17 12 -52 25 -77 28 -25 3 -55 7 -66 9 -11 1
-130 -1 -265 -4z m-3525 -7226 c44 -14 85 -30 91 -35 6 -5 71 -40 145 -78 252
-129 337 -188 463 -320 33 -35 71 -73 84 -85 13 -11 32 -35 43 -52 10 -17 33
-47 51 -66 35 -37 121 -179 176 -292 35 -71 100 -262 122 -353 23 -101 86
-123 344 -123 237 0 657 51 862 104 231 60 712 350 955 575 l87 80 6 -40 c8
-51 66 -115 121 -133 31 -11 45 -24 63 -57 12 -24 28 -47 35 -51 8 -6 9 -10 1
-15 -16 -12 -112 -216 -128 -276 -8 -29 -39 -116 -69 -194 -30 -78 -58 -155
-61 -170 -8 -31 -80 -200 -132 -309 -19 -38 -42 -104 -53 -145 -43 -166 -64
-239 -100 -349 -21 -63 -44 -149 -51 -190 -7 -41 -20 -100 -30 -130 -12 -41
-15 -79 -12 -142 4 -88 -13 -176 -45 -223 -7 -11 -13 -30 -13 -42 0 -28 -27
-43 -78 -43 -66 0 -151 -51 -348 -212 -145 -117 -272 -245 -443 -444 -130
-152 -282 -360 -303 -416 -2 -4 -27 -10 -55 -14 -42 -5 -53 -4 -53 7 0 18 119
233 174 315 23 34 68 93 101 132 33 38 101 118 152 178 151 179 416 421 560
513 75 47 115 95 104 124 -31 77 -47 103 -94 153 -48 51 -76 68 -347 201 -526
260 -661 303 -951 306 -124 2 -150 -1 -165 -14 -11 -9 -56 -35 -101 -58 -45
-22 -84 -45 -87 -50 -4 -5 -37 -26 -74 -47 -37 -21 -105 -63 -152 -94 -47 -31
-106 -69 -132 -84 -48 -28 -243 -216 -358 -345 -34 -38 -79 -104 -100 -145
-22 -42 -56 -102 -76 -134 -20 -31 -51 -80 -69 -108 -34 -52 -55 -99 -130
-291 -54 -136 -121 -278 -151 -318 -12 -16 -34 -64 -49 -105 -14 -41 -35 -88
-45 -105 -10 -16 -32 -68 -48 -115 -17 -47 -46 -125 -66 -174 -20 -49 -36 -94
-36 -101 0 -6 -17 -43 -37 -81 -39 -73 -54 -111 -110 -268 -31 -86 -35 -108
-29 -158 4 -38 2 -58 -5 -58 -18 0 -109 100 -109 121 0 10 -4 19 -10 19 -5 0
-28 29 -50 64 -40 63 -156 182 -235 241 -22 17 -72 56 -112 88 -39 31 -76 57
-82 57 -13 0 -95 109 -123 165 -22 42 -29 154 -11 177 6 7 13 28 17 46 3 19
12 48 20 65 8 18 44 115 81 217 37 102 80 219 95 260 15 41 62 181 103 310
204 638 287 980 287 1187 l0 105 74 121 c191 317 253 482 310 832 29 177 58
584 60 840 1 124 4 143 21 163 41 48 159 110 210 112 11 0 56 -12 100 -26z
m797 -5404 c159 -24 251 -47 338 -85 95 -42 95 -47 0 -38 -129 12 -453 9 -560
-6 -351 -48 -715 -159 -1034 -317 -60 -30 -110 -54 -113 -54 -19 0 78 92 197
187 170 136 251 178 480 251 200 65 197 64 320 72 182 12 236 11 372 -10z"/>
<path d="M11515 9120 c-187 -38 -253 -55 -345 -86 -126 -44 -264 -113 -380
-188 -92 -59 -254 -205 -335 -300 -27 -32 -70 -79 -96 -105 -60 -61 -101 -123
-130 -196 -17 -43 -34 -66 -59 -82 -21 -14 -49 -49 -70 -87 -19 -36 -52 -90
-73 -121 -25 -38 -45 -86 -62 -152 -44 -168 -30 -309 52 -508 39 -96 81 -147
206 -249 55 -45 182 -106 219 -106 10 0 44 -9 75 -20 32 -11 100 -24 151 -29
96 -10 143 -30 179 -74 10 -13 32 -33 50 -45 17 -12 103 -100 189 -195 210
-228 458 -477 514 -512 25 -16 58 -40 73 -52 16 -13 138 -77 270 -142 197 -96
269 -126 387 -161 80 -23 204 -59 275 -80 193 -57 365 -89 584 -110 108 -11
254 -26 326 -35 71 -8 187 -15 258 -15 79 0 149 -6 185 -15 31 -8 74 -17 94
-20 36 -6 74 -33 198 -140 212 -185 400 -317 669 -470 228 -129 684 -348 818
-394 262 -88 462 -165 548 -210 21 -12 47 -21 56 -21 9 0 67 -18 130 -40 63
-22 183 -56 267 -76 184 -42 171 -38 252 -87 131 -81 176 -112 225 -157 28
-25 93 -82 145 -127 198 -169 532 -545 607 -683 10 -19 31 -55 47 -79 16 -24
29 -50 30 -56 1 -7 9 -23 17 -36 18 -27 51 -109 45 -109 -3 0 -1 -14 4 -30 5
-17 11 -54 15 -83 21 -181 37 -271 60 -331 74 -197 170 -292 321 -321 96 -17
150 -19 324 -11 216 11 352 57 426 143 35 42 76 102 126 183 8 14 32 72 53
130 35 97 38 115 43 240 5 156 -10 297 -43 385 -36 98 -150 311 -221 412 -86
124 -158 196 -319 323 -109 86 -124 99 -275 235 -47 42 -110 95 -140 118 -61
46 -214 182 -335 298 -110 105 -178 165 -260 231 -38 31 -113 95 -165 143 -81
74 -211 173 -379 287 -28 19 -48 46 -73 100 -20 40 -46 82 -58 93 -12 11 -29
33 -37 49 -28 54 -293 391 -402 512 -25 28 -66 76 -90 108 -25 31 -88 96 -140
143 -53 47 -129 120 -169 162 -219 225 -578 410 -1127 579 -168 51 -238 67
-415 92 -80 11 -152 23 -160 26 -37 14 -270 29 -425 27 l-170 -2 -60 97 c-135
216 -269 379 -615 742 -92 96 -182 193 -201 215 -19 22 -46 50 -61 63 -16 13
-36 37 -45 53 -10 17 -67 73 -128 125 -60 52 -126 110 -145 128 -19 18 -75 64
-125 103 -49 39 -99 82 -111 95 -23 25 -192 166 -272 225 -154 114 -282 196
-426 271 -34 18 -301 26 -371 12z"/>
</g>
</svg>
