<svg xmlns="http://www.w3.org/2000/svg" width="300px" height="227px" viewBox="0 0 1008 1024" fill="#FFF">
    <path opacity="0.2" d="M625.2 194v541.6c0 28-2.8 57.8-8.4 87 136.8-25 226-109.6 271.2-256.8l22-72V.6c-258 0-284.8 99-284.8 193.4zM170.8 57h57v56.2h-57V57zm57 85h57v56.4h-57V142zm-56.6 70.8h56.4V269h-56.4v-56.2zm-57 84.4h56.4v56.4h-56.4v-56.4zM0 0h57v57H0V0zm284.8 735.6V325.4h-57v209.8h-57V409.8H114V466H57V155.8H0v464C0 850.6 169 1024 455 1024c0 0-170.2-93.8-170.2-288.4zM495 852.8c-76-3.4-134.4-22.8-179.6-50.6 30.6 133 145.2 198.4 150.8 201.6l33.8 18.6c258.6-17.2 410-184.2 410-402.6v-47.4c-61.4 200.6-204.6 290-415 280.4zm-380.8-739h56.2V170h-56.2v-56.2zM973.4.2c-18.8 0-34.6 14.8-34.6 34.2 0 19.8 15.8 34.4 34.6 34.4s34.4-14.8 34.4-34.4C1007.8 15 992 .2 973.4.2zm0 63.6c-16 0-28.4-12.6-28.4-29.4 0-16.4 12.2-29 28.4-29 15.8 0 28.2 12.6 28.2 29 0 16.6-12.4 29.4-28.2 29.4zm16-38c0-7.8-4.4-11.4-14-11.4H960v40h6.2V37.2h6.6l11 17.2h6.6L979 36.8c6-.6 10.4-3.6 10.4-11zm-16.6 6.4h-6.6V19.4h8.2c4.2 0 8.8.8 8.8 6.2 0 6.4-5 6.6-10.4 6.6z"/>
</svg>