<?xml version="1.0" encoding="iso-8859-1"?>
<!-- Generator: Adobe Illustrator 16.0.0, SVG Export Plug-In . SVG Version: 6.00 Build 0)  -->
<!DOCTYPE svg PUBLIC "-//W3C//DTD SVG 1.1//EN" "http://www.w3.org/Graphics/SVG/1.1/DTD/svg11.dtd">
<svg version="1.1" id="Capa_1" xmlns="http://www.w3.org/2000/svg"  x="0px" y="0px"
	 width="93.998px" height="93.998px" viewBox="0 0 93.998 93.998"
	 xml:space="preserve" >
<g>
	<path opacity="0.1" d="M73.805,0h-53.61c-3.042,0-5.508,2.466-5.508,5.508V88.49c0,3.042,2.466,5.508,5.508,5.508h53.609
		c3.042,0,5.508-2.466,5.508-5.508V5.508C79.312,2.466,76.846,0,73.805,0z M60.632,10.507c0.826-0.914,1.957-1.452,3.188-1.516
		c0.084-0.004,0.167-0.007,0.25-0.007c2.446,0,4.462,1.923,4.589,4.382c0.008,0.157,0.006,0.319,0,0.466
		c-0.068,1.321-0.162,2.642-0.262,3.956l-0.122,1.668c-0.056,0.775-0.11,1.551-0.188,2.354l-0.875,9.532
		c-0.016,0.16-0.073,0.347-0.154,0.498L48.272,57.782l12.491-27.94l-0.741-8.062c-0.079-0.807-0.135-1.614-0.195-2.479l-0.113-1.504
		c-0.101-1.322-0.193-2.643-0.262-3.964C59.389,12.603,59.809,11.421,60.632,10.507z M20.012,8.995c0-2.129,1.726-3.855,3.855-3.855
		c2.129,0,3.855,1.727,3.855,3.855s-1.726,3.855-3.855,3.855C21.737,12.85,20.012,11.124,20.012,8.995z M47,86.838
		c-12.573,0-22.766-10.191-22.766-22.766S34.426,41.307,47,41.307c1.644,0,3.244,0.185,4.787,0.519l-7.999,17.893l5.018,2.963
		l12.059-16.652c5.409,4.162,8.901,10.691,8.901,18.045C69.766,76.645,59.573,86.838,47,86.838z"/>
</g>
</svg>